<?xml version="1.0" encoding="utf-8"?>
<!-- Generator: Adobe Illustrator 21.1.0, SVG Export Plug-In . SVG Version: 6.00 Build 0)  -->
<svg version="1.1" id="Layer_2" xmlns="http://www.w3.org/2000/svg" xmlns:xlink="http://www.w3.org/1999/xlink" x="0px" y="0px"
	 viewBox="0 0 19.5 18.7" style="enable-background:new 0 0 19.5 18.7;" xml:space="preserve">
<style type="text/css">
	.st0{fill:#FFFFFF;}
</style>
<path class="st0" d="M16.6,9.2c-0.1-3.9-3.4-7.1-7.3-7.1c-4,0-7.3,3.3-7.3,7.3c0,4,3.3,7.3,7.3,7.3c2,0,3.9-0.8,5.2-2.2
	c0-1.2,0.1-1.6,0.1-1.6s-0.5,0.1-1.6,0.5c-1,0.9-2.2,1.4-3.7,1.4c-3,0-5.4-2.4-5.4-5.4c0-3,2.4-5.4,5.4-5.4c2.9,0,5.3,2.3,5.4,5.2
	h-1.5l1.4,1.4l1.1,1.1l0.8-0.8l1.6-1.6H16.6z"/>
</svg>
