<?xml version="1.0" encoding="utf-8"?>
<!-- Generator: Adobe Illustrator 21.1.0, SVG Export Plug-In . SVG Version: 6.00 Build 0)  -->
<svg version="1.1" id="Layer_1" xmlns="http://www.w3.org/2000/svg" xmlns:xlink="http://www.w3.org/1999/xlink" x="0px" y="0px"
	 viewBox="0 0 335 74" style="enable-background:new 0 0 335 74;" xml:space="preserve">
<style type="text/css">
	.st0{fill-rule:evenodd;clip-rule:evenodd;fill:#FF3131;}
	.st1{fill:#FFFFFF;}
</style>
<path class="st0" d="M29,0H335l-29,74H0L29,0z"/>
<g>
	<g>
		<g>
			<path class="st1" d="M107.3,30h-2.5v14h8.6v-2h-6.2V30z M116.1,44h2.5V30h-2.5V44z M129.7,36.4c-0.7-0.3-1.5-0.6-2.6-0.8
				c-0.7-0.2-1.3-0.4-1.7-0.5s-0.7-0.3-1-0.6c-0.3-0.2-0.4-0.5-0.4-0.9c0-0.6,0.2-1,0.6-1.4c0.4-0.3,1-0.5,1.7-0.5
				c0.8,0,1.5,0.1,2.2,0.4c0.7,0.3,1.3,0.7,1.9,1.2l1.4-1.8c-1.3-1.2-3.1-1.8-5.3-1.8c-1,0-1.9,0.2-2.7,0.5
				c-0.8,0.3-1.4,0.8-1.8,1.4c-0.4,0.6-0.6,1.2-0.6,2c0,0.9,0.2,1.5,0.7,2.1c0.5,0.5,1,0.9,1.7,1.2c0.7,0.3,1.5,0.5,2.6,0.7
				c0.7,0.2,1.3,0.4,1.7,0.6c0.4,0.2,0.8,0.4,1,0.7c0.3,0.3,0.4,0.7,0.4,1.1c0,0.6-0.2,1.1-0.7,1.6c-0.5,0.4-1.2,0.7-2.1,0.7
				c-0.9,0-1.7-0.2-2.5-0.5c-0.8-0.4-1.4-0.8-1.9-1.4l-1.4,1.9c0.7,0.6,1.5,1.1,2.4,1.5c0.9,0.4,2,0.5,3.3,0.5c1.2,0,2.2-0.2,3-0.6
				c0.8-0.4,1.4-0.9,1.8-1.6c0.4-0.7,0.6-1.4,0.6-2.2c0-0.9-0.2-1.7-0.7-2.3S130.4,36.7,129.7,36.4z M133.8,31.9h4.2v12h2.5v-12h4.2
				v-2h-11V31.9z M147.2,44h9.6v-2h-7.2v-4.3h7v-2h-7v-3.8h7.2v-2h-9.6V44z M169.5,39.7l-7.2-9.7h-2.5v14h2.5V34l7.3,10h2.4V30h-2.5
				V39.7z M190.9,39.7l-7.2-9.7h-2.5v14h2.5V34l7.3,10h2.4V30h-2.5V39.7z M207,30.7c-1.1-0.6-2.3-0.9-3.7-0.9s-2.6,0.3-3.7,0.9
				c-1.1,0.6-1.9,1.5-2.5,2.6c-0.6,1.1-0.9,2.3-0.9,3.7c0,1.4,0.3,2.6,0.9,3.7c0.6,1.1,1.5,2,2.5,2.6c1.1,0.6,2.3,0.9,3.7,0.9
				s2.6-0.3,3.7-0.9c1.1-0.6,1.9-1.5,2.5-2.6c0.6-1.1,0.9-2.3,0.9-3.7c0-1.4-0.3-2.6-0.9-3.7C208.9,32.2,208.1,31.3,207,30.7z
				 M207.4,39.7c-0.4,0.8-0.9,1.4-1.6,1.9c-0.7,0.5-1.5,0.7-2.4,0.7c-0.9,0-1.7-0.2-2.4-0.7c-0.7-0.5-1.2-1.1-1.6-1.9
				c-0.4-0.8-0.6-1.7-0.6-2.7c0-1,0.2-1.9,0.6-2.7c0.4-0.8,0.9-1.4,1.6-1.9c0.7-0.5,1.5-0.7,2.4-0.7c0.9,0,1.7,0.2,2.4,0.7
				c0.7,0.5,1.2,1.1,1.6,1.9c0.4,0.8,0.6,1.7,0.6,2.7C207.9,38,207.8,38.9,207.4,39.7z M227.5,30l-2.7,10.8L221.8,30h-2L217,40.8
				L214.2,30h-2.8l4,14h2.6l2.7-10.3l2.7,10.3h2.6l4-14H227.5z"/>
		</g>
	</g>
</g>
</svg>
