<?xml version="1.0" encoding="utf-8"?>
<!-- Generator: Adobe Illustrator 21.1.0, SVG Export Plug-In . SVG Version: 6.00 Build 0)  -->
<svg version="1.1" id="Layer_1" xmlns="http://www.w3.org/2000/svg" xmlns:xlink="http://www.w3.org/1999/xlink" x="0px" y="0px"
	 viewBox="0 0 303.3 43.9" style="enable-background:new 0 0 303.3 43.9;" xml:space="preserve">
<style type="text/css">
	.st0{fill:#FFFFFF;}
</style>
<g>
	<path class="st0" d="M303.2,40.1L289.4,1.9c-0.2-0.5-0.7-0.9-1.2-1.1l-0.2,0c-0.8-0.2-1.6,0.3-1.9,1.1l-7.9,23.8l-7.9-23.8
		c-0.2-0.6-0.7-1-1.2-1.1l-0.2,0c-0.8-0.2-1.6,0.3-1.9,1.1l-13.4,38.3c-0.4,1.1,0.4,2.2,1.5,2.2h4.3c0.7,0,1.3-0.5,1.6-1.1l7.8-24.4
		l8,24.6c0.2,0.6,0.7,1,1.2,1.1l0.2,0c0.8,0.2,1.6-0.3,1.9-1.1l7.9-24.5l7.8,24.3c0.2,0.7,0.8,1.1,1.6,1.1h4.3
		C302.8,42.3,303.6,41.2,303.2,40.1z"/>
	<path class="st0" d="M33.3,32.4c-0.6-0.6-1.6-0.6-2.2-0.1c-3.1,2.6-6.3,3.9-9.8,3.9c-8.9,0-15.7-8-14.1-17.2
		c1.2-7,7.6-12,14.7-11.7c3.3,0.1,6.3,1.4,9.2,3.9c0.7,0.6,1.6,0.5,2.3-0.1l2.5-2.6c0.7-0.7,0.6-1.8-0.1-2.4
		c-4.2-3.6-8.9-5.6-14-5.7C11.1,0.2,1.6,7.9,0,18.5c-2,13.2,8.4,24.6,21.3,24.6c5.3,0,10.2-2,14.5-5.8c0.7-0.6,0.7-1.7,0.1-2.4
		L33.3,32.4z"/>
	<path class="st0" d="M90.3,1.2h-4c-0.9,0-1.6,0.7-1.6,1.6v20.5c0,8.2-4.9,12.9-11.6,12.9c-6.7,0-11.6-4.7-11.6-12.9V2.9
		c0-0.9-0.7-1.6-1.6-1.6h-4c-0.9,0-1.6,0.7-1.6,1.6v20.5c0,12.2,8.5,19.8,18.9,19.8s18.9-7.6,18.9-19.8V2.9
		C91.9,2,91.2,1.2,90.3,1.2z"/>
	<path class="st0" d="M120.7,15.9c-0.6-1.1-0.8-2.4-0.8-3.7c0-2.8,1.5-4.3,4.5-5.9c0.8-0.4,1.1-1.3,0.7-2.1L123.7,1
		c-0.4-0.9-1.4-1.2-2.3-0.8c-5.7,3-8.5,6.8-8.5,12.3c0,2.2,0.5,4.3,1.5,6.3l4.1,8.8c0.6,1.2,0.9,2.6,0.9,3.8c0,2.8-1.5,4.3-4.6,5.8
		c-0.8,0.4-1.1,1.3-0.7,2.1l1.5,3.3c0.4,0.9,1.4,1.2,2.3,0.8c5.6-3,8.4-6.6,8.4-12.2c0-2.3-0.5-4.4-1.5-6.5L120.7,15.9z"/>
	<path class="st0" d="M217.9,0.1c-11.8,0-21.5,9.5-21.5,21.4c0,11.8,9.7,21.4,21.5,21.4c11.8,0,21.6-9.6,21.6-21.4
		C239.5,9.6,229.7,0.1,217.9,0.1z M217.9,35.9c-8,0-14.3-6.5-14.3-14.4c0-8,6.3-14.4,14.3-14.4c8,0,14.3,6.5,14.3,14.4
		C232.2,29.4,225.9,35.9,217.9,35.9z"/>
	<path class="st0" d="M179.3,19h-14.7V2.1c0-0.9-0.7-1.6-1.6-1.6H159c-0.9,0-1.6,0.7-1.6,1.6V19h-14.8c-0.9,0-1.6,0.7-1.6,1.6v3.1
		c0,0.9,0.7,1.6,1.6,1.6h14.8v16.9c0,0.9,0.7,1.6,1.6,1.6h3.9c0.9,0,1.6-0.7,1.6-1.6V25.3h14.7c0.9,0,1.6-0.7,1.6-1.6v-3.1
		C180.9,19.7,180.2,19,179.3,19z"/>
</g>
</svg>
