<?xml version="1.0" encoding="utf-8"?>
<!-- Generator: Adobe Illustrator 21.1.0, SVG Export Plug-In . SVG Version: 6.00 Build 0)  -->
<svg version="1.1" id="Layer_1" xmlns="http://www.w3.org/2000/svg" xmlns:xlink="http://www.w3.org/1999/xlink" x="0px" y="0px"
	 viewBox="0 0 265.8 41" style="enable-background:new 0 0 265.8 41;" xml:space="preserve">
<style type="text/css">
	.st0{fill:#FFFFFF;}
</style>
<path class="st0" d="M178.3,0c13.2,0,22.5,7.2,22.5,20.5c0,12.7-8.7,20.5-22.5,20.5c-13.5,0-22.5-7.4-22.5-20.5
	C155.8,7.6,164.7,0,178.3,0z M178.3,32.5c7,0,11.2-4.8,11.2-12c0-7.6-4.4-12-11.2-12c-7.2,0-11.2,4.8-11.2,12
	C167.1,27.4,171,32.5,178.3,32.5z M94.1,0.5c-1.3,0-22.1,0-22.1,0s0,1.6,0,3.1c0,2.7,1.4,5.3,5.3,5.3c1.7,0,14.1,0,14.1,0
	c5.9,0,8,1.9,8,6.6v0.7h-15c-11.1,0-15.2,5.1-15.2,12.1c0,8.5,5.7,12.2,15.2,12.2l0,0c0,0,6.2,0,9.9,0c13,0,15.8-6.5,15.8-15.1v-9.9
	C110.1,6.2,106.7,0.5,94.1,0.5z M99.3,25.5c0,4-1.9,7.1-7.3,7.1h-5.6c-3.9,0-6.3-1-6.3-4.3c0-3.1,2.2-4.3,6.3-4.3h12.9V25.5z
	 M141.3,8.9c0,0,5.5,0,5.5,0c3.9,0,6.3-1.4,6.3-5V0.5h-15.6l0,0c-13.1,0-19.4,7.7-19.4,20c0,15.4,9.6,20,19.4,20h15.6v-3.4
	c0-3.6-2.4-5-6-5c-1.7,0-5.8,0-5.8,0c-6.2,0-12-2.2-12-11.6C129.3,12.4,133.7,8.9,141.3,8.9z M23.1,29.6c0,0-9.3-24.3-9.8-25.7
	C12.5,2,11.6,0.5,8,0.5H0l16.5,40h12l17-40c0,0-5.1,0-7,0c-3,0-4.2,1.3-5,3.2L23.3,29.6H23.1z M237.2,29.2c0,0-6.8-19.5-8.1-23.2
	c-0.8-2.5-2-5.6-7.6-5.6c-0.7,0-12.7,0-12.7,0v40h4.3c3.3,0,5.3-1.5,5.3-4.8v-28h0.2L231,40.5h11.6l12.4-32.8h0.2c0,0,0,28,0,28
	c0,2.8,1.5,4.8,5.3,4.8h5.3v-40c0,0-9.7,0-11.9,0c-4.2,0-6.8,1.2-8.1,4.9c-0.8,2.5-8.3,23.8-8.3,23.8H237.2z M50.5,0.5v35.3
	c0,2.8,1.6,4.7,5.2,4.7h5.6v-40H50.5z"/>
</svg>
